<svg xmlns="http://www.w3.org/2000/svg" xmlns:svg="http://www.w3.org/2000/svg" id="svg2" width="608.671" height="440.625" version="1.1" xml:space="preserve"><metadata id="metadata8"/><g id="g10" transform="matrix(1.25,0,0,-1.25,0,440.625)" style="display:inline"><g id="g12" transform="translate(227.7642,350.728)" style="stroke:red;stroke-opacity:1;stroke-width:1;stroke-miterlimit:4;stroke-dasharray:none"><path style="fill:none;stroke:red;stroke-width:1;stroke-linecap:butt;stroke-linejoin:miter;stroke-miterlimit:4;stroke-opacity:1;stroke-dasharray:none" id="path14" d="m 0,0 21.968,0 0,-8.504 21.969,0 0,8.504 14.173,0 0,-8.504 14.174,0 0,8.504 14.172,0 0,-8.504 21.969,0 0,8.504 21.969,0 0,-15.874 -8.504,0 0,-15.874 8.504,0 0,-15.874 -8.504,0 0,-15.874 8.504,0 0,-15.874 -21.969,0 0,8.504 -21.969,0 0,-8.504 -14.172,0 0,8.504 -14.174,0 0,-8.504 -14.173,0 0,8.504 -21.969,0 0,-8.504 -21.968,0 0,15.874 8.504,0 0,15.874 -8.504,0 0,15.874 8.504,0 0,15.874 -8.504,0 L 0,0 z"/></g><g id="g16" transform="translate(358.1577,4.9004)" style="stroke:red;stroke-opacity:1;stroke-width:1;stroke-miterlimit:4;stroke-dasharray:none"><path style="fill:none;stroke:red;stroke-width:1;stroke-linecap:butt;stroke-linejoin:miter;stroke-miterlimit:4;stroke-opacity:1;stroke-dasharray:none" id="path18" d="m 0,0 -21.97,0 0,8.504 -21.968,0 0,-8.504 -14.172,0 0,8.504 -14.174,0 0,-8.504 -14.173,0 0,8.504 -21.969,0 0,-8.504 -21.969,0 0,15.875 8.504,0 0,15.873 -8.504,0 0,15.875 8.504,0 0,15.873 -8.504,0 0,15.875 21.969,0 0,-8.504 21.969,0 0,8.504 14.173,0 0,-8.504 14.174,0 0,8.504 14.172,0 0,-8.504 21.968,0 0,8.504 21.97,0 0,-15.875 -8.505,0 0,-15.873 8.505,0 0,-15.875 -8.505,0 0,-15.873 8.505,0 L 0,0 z"/></g><g id="g20" transform="translate(358.1577,92.7754)" style="stroke:red;stroke-opacity:1;stroke-width:1;stroke-miterlimit:4;stroke-dasharray:none"><path style="fill:none;stroke:red;stroke-width:1;stroke-linecap:butt;stroke-linejoin:miter;stroke-miterlimit:4;stroke-opacity:1;stroke-dasharray:none" id="path22" d="m 0,0 0,13.465 8.504,0 0,21.969 -8.504,0 0,14.173 8.504,0 0,14.172 -8.504,0 0,14.174 8.504,0 0,14.174 -8.504,0 0,14.172 8.504,0 0,14.174 -8.504,0 0,14.173 8.504,0 0,21.969 -8.504,0 0,13.464 15.874,0 0,8.504 15.874,0 0,-8.504 15.874,0 0,8.504 15.874,0 0,-8.504 15.874,0 0,-13.464 -8.504,0 0,-21.969 8.504,0 0,-14.173 -8.504,0 0,-14.174 8.504,0 0,-14.172 -8.504,0 0,-14.174 8.504,0 0,-14.174 -8.504,0 0,-14.172 8.504,0 0,-14.173 -8.504,0 0,-21.969 8.504,0 0,-13.465 -15.874,0 0,-8.504 -15.874,0 0,8.504 -15.874,0 0,-8.504 -15.874,0 0,8.504 L 0,0 z"/></g><g id="g24" transform="translate(148.3936,92.7754)" style="stroke:red;stroke-opacity:1;stroke-width:1;stroke-miterlimit:4;stroke-dasharray:none"><path style="fill:none;stroke:red;stroke-width:1;stroke-linecap:butt;stroke-linejoin:miter;stroke-miterlimit:4;stroke-opacity:1;stroke-dasharray:none" id="path26" d="m 0,0 0,13.465 8.504,0 0,21.969 -8.504,0 0,14.173 8.504,0 0,14.172 -8.504,0 0,14.174 8.504,0 0,14.174 -8.504,0 0,14.172 8.504,0 0,14.174 -8.504,0 0,14.173 8.504,0 0,21.969 -8.504,0 0,13.464 15.874,0 0,8.504 15.874,0 0,-8.504 15.874,0 0,8.504 15.874,0 0,-8.504 15.874,0 0,-13.464 -8.504,0 0,-21.969 8.504,0 0,-14.173 -8.504,0 0,-14.174 8.504,0 0,-14.172 -8.504,0 0,-14.174 8.504,0 0,-14.174 -8.504,0 0,-14.172 8.504,0 0,-14.173 -8.504,0 0,-21.969 8.504,0 0,-13.465 -15.874,0 0,-8.504 -15.874,0 0,8.504 -15.874,0 0,-8.504 -15.874,0 0,8.504 L 0,0 z"/></g><g id="g28" transform="translate(26.5039,262.8545)" style="stroke:red;stroke-opacity:1;stroke-width:1;stroke-miterlimit:4;stroke-dasharray:none"><path style="fill:none;stroke:red;stroke-width:1;stroke-linecap:butt;stroke-linejoin:miter;stroke-miterlimit:4;stroke-opacity:1;stroke-dasharray:none" id="path30" d="m 0,0 13.464,0 0,8.504 21.969,0 0,-8.504 14.173,0 0,8.504 14.174,0 0,-8.504 14.173,0 0,8.504 21.968,0 0,-8.504 13.465,0 0,-13.465 8.504,0 0,-21.969 -8.504,0 0,-14.172 8.504,0 0,-14.174 -8.504,0 0,-14.173 8.504,0 0,-14.173 -8.504,0 0,-14.174 8.504,0 0,-14.173 -8.504,0 0,-14.173 8.504,0 0,-21.968 -8.504,0 0,-13.465 -13.465,0 0,-8.504 -21.968,0 0,8.504 -14.173,0 0,-8.504 -14.174,0 0,8.504 -14.173,0 0,-8.504 -21.969,0 0,8.504 -13.464,0 0,13.465 -8.504,0 0,21.968 8.504,0 0,14.173 -8.504,0 0,14.173 8.504,0 0,14.174 -8.504,0 0,14.173 8.504,0 0,14.173 -8.504,0 0,14.174 8.504,0 0,14.172 -8.504,0 0,21.969 8.504,0 L 0,0 z"/></g><g id="g32" transform="translate(236.2681,262.8545)" style="stroke:red;stroke-opacity:1;stroke-width:1;stroke-miterlimit:4;stroke-dasharray:none"><path style="fill:none;stroke:red;stroke-width:1;stroke-linecap:butt;stroke-linejoin:miter;stroke-miterlimit:4;stroke-opacity:1;stroke-dasharray:none" id="path34" d="m 0,0 13.465,0 0,8.504 21.968,0 0,-8.504 14.172,0 0,8.504 14.174,0 0,-8.504 14.173,0 0,8.504 21.969,0 0,-8.504 13.465,0 0,-13.465 8.504,0 0,-21.969 -8.504,0 0,-14.172 8.504,0 0,-14.174 -8.504,0 0,-14.173 8.504,0 0,-14.173 -8.504,0 0,-14.174 8.504,0 0,-14.173 -8.504,0 0,-14.173 8.504,0 0,-21.968 -8.504,0 0,-13.465 -13.465,0 0,-8.504 -21.969,0 0,8.504 -14.173,0 0,-8.504 -14.174,0 0,8.504 -14.172,0 0,-8.504 -21.968,0 0,8.504 -13.465,0 0,13.465 -8.504,0 0,21.968 8.504,0 0,14.173 -8.504,0 0,14.173 8.504,0 0,14.174 -8.504,0 0,14.173 8.504,0 0,14.173 -8.504,0 0,14.174 8.504,0 0,14.172 -8.504,0 0,21.969 8.504,0 L 0,0 z"/></g><path style="fill:none;stroke:red;stroke-width:1;stroke-linecap:butt;stroke-linejoin:miter;stroke-miterlimit:4;stroke-opacity:1;stroke-dasharray:none" id="path36" d="m 293.47,327.75 -28.346,0 0,22.979 28.346,0 0,-22.979 z"/><path style="fill:none;stroke:red;stroke-width:1;stroke-linecap:butt;stroke-linejoin:miter;stroke-miterlimit:4;stroke-opacity:1;stroke-dasharray:none" id="path38" d="m 412.015,201.908 -28.346,0 0,46.772 28.346,0 0,-46.772 z"/><path style="fill:none;stroke:red;stroke-width:1;stroke-linecap:butt;stroke-linejoin:miter;stroke-miterlimit:4;stroke-opacity:1;stroke-dasharray:none" id="path40" d="m 412.016,140.963 -28.347,0 0,46.771 28.347,0 0,-46.771 z"/><path style="fill:none;stroke:red;stroke-width:1;stroke-linecap:butt;stroke-linejoin:miter;stroke-miterlimit:4;stroke-opacity:1;stroke-dasharray:none" id="path42" d="m 265.125,61.594 59.979,0 0,-5.67 -59.979,0 0,5.67 z"/><path style="fill:none;stroke:red;stroke-width:1;stroke-linecap:butt;stroke-linejoin:miter;stroke-miterlimit:4;stroke-opacity:1;stroke-dasharray:none" id="path68" d="m 207.104,109.784 -19.025,0 0,19.217 19.025,0 0,-19.217 z"/><path style="fill:none;stroke:red;stroke-width:1;stroke-linecap:butt;stroke-linejoin:miter;stroke-miterlimit:4;stroke-opacity:1;stroke-dasharray:none" id="path74" d="m 83.197,149 25.24,0 0,-13.037 -25.24,0 0,13.037 z"/></g><g id="layer1" style="display:inline"><text style="font-size:15px;display:inline" id="text52" x="-161.796" y="301.875" transform="scale(-1,1)"><tspan style="font-size:7.5px;font-variant:normal;font-weight:400;font-stretch:normal;writing-mode:lr-tb;fill:#000;fill-opacity:1;fill-rule:nonzero;stroke:none;font-family:Myriad Pro;-inkscape-font-specification:MyriadPro-Regular" id="tspan54" x="-161.796 -157.469 -155.714 -153.336 -149.976 -145.844 -144.089 -141.606 -140.054 -138.464 -134.474 -132.381 -128.624 -126.869 -122.594 -118.836 -116.781 -115.229 -113.639 -108.621 -104.489 -100.731 -96.599 -94.161 -90.494 -88.941 -87.351 -83.504 -79.656 -75.809 -71.961" y="301.875">Circuit: Pfeifer, Duente, 2015.</tspan><tspan style="font-size:7.5px;font-variant:normal;font-weight:400;font-stretch:normal;writing-mode:lr-tb;fill:#000;fill-opacity:1;fill-rule:nonzero;stroke:none;font-family:Myriad Pro;-inkscape-font-specification:MyriadPro-Regular" id="tspan56" x="-161.796 -157.731 -153.974 -150.366 -148.611 -145.641 -143.886 -139.769 -135.606 -132.636 -131.084 -129.494 -126.059 -121.941 -117.674 -113.916 -111.029 -109.476 -107.886 -102.861 -98.744 -94.551 -90.936 -89.384 -87.794 -83.946 -80.099 -76.251 -72.404 -70.851" y="310.875">Revisions: Lopes, Doga, 2016.</tspan></text><text style="font-size:15px;display:inline" id="text58" x="-360.668" y="45.516" transform="scale(-1,1)"><tspan style="font-size:15px;font-variant:normal;font-weight:400;font-stretch:normal;writing-mode:lr-tb;fill:#000;fill-opacity:1;fill-rule:nonzero;stroke:none;font-family:Myriad Pro;-inkscape-font-specification:MyriadPro-Regular" id="tspan60" x="-360.668 -352.403 -346.463" y="45.516">usb</tspan></text><text style="font-size:15px;display:inline" id="text62" x="-189.121" y="-522.158" transform="matrix(0,-1,-1,0,0,0)"><tspan style="font-size:15px;font-variant:normal;font-weight:400;font-stretch:normal;writing-mode:lr-tb;fill:#000;fill-opacity:1;fill-rule:nonzero;stroke:none;font-family:Myriad Pro;-inkscape-font-specification:MyriadPro-Regular" id="tspan64" x="-189.121 -183.181 -178.216 -174.706 -162.196 -153.931 -150.391 -143.221 -138.346 -130.111" y="-522.158">stimulator</tspan></text><text style="font-size:15px;display:inline" id="text70" x="282.731" y="232.121" transform="matrix(0,1,1,0,0,0)"><tspan style="font-size:15px;font-variant:normal;font-weight:400;font-stretch:normal;writing-mode:lr-tb;fill:#000;fill-opacity:1;fill-rule:nonzero;stroke:none;font-family:Myriad Pro;-inkscape-font-specification:MyriadPro-Regular" id="tspan72" x="282.731 290.426" y="232.121">9v</tspan></text><text style="font-size:15px;display:inline" id="text48" x="-161.796" y="292.875" transform="scale(-1,1)"><tspan style="font-size:15px;font-variant:normal;font-weight:400;font-stretch:normal;writing-mode:lr-tb;fill:#000;fill-opacity:1;fill-rule:nonzero;stroke:none;font-family:Myriad Pro;-inkscape-font-specification:MyriadPro-Regular" id="tspan50" x="-161.796 -154.416 -142.356 -134.961 -131.781 -125.151 -116.916 -108.651 -103.686 -98.931 -90.696" y="292.875">EMS control</tspan></text><text style="font-size:15px;display:inline" id="text62-6" x="-269.032" y="-540.541" transform="matrix(0,-1,-1,0,0,0)"><tspan style="font-size:15px;font-variant:normal;font-weight:400;font-stretch:normal;writing-mode:lr-tb;fill:#000;fill-opacity:1;fill-rule:nonzero;stroke:none;font-family:Myriad Pro;-inkscape-font-specification:MyriadPro-Regular" id="tspan66-1" x="-269.032" y="-521.791">electrodes</tspan></text></g></svg>